<svg id="Layer_1" data-name="Layer 1" xmlns="http://www.w3.org/2000/svg" viewBox="0 0 49.42 49.74"><defs><style>.cls-1{fill:#f7a6b2;}</style></defs><title>linkedin-icon</title><path class="cls-1" d="M102.32,348.44v-0.08l0,0.08h0Z" transform="translate(-75.74 -326)"/><path class="cls-1" d="M121.51,326H79.39a3.61,3.61,0,0,0-3.65,3.56v42.61a3.61,3.61,0,0,0,3.65,3.56h42.12a3.61,3.61,0,0,0,3.65-3.56V329.56A3.61,3.61,0,0,0,121.51,326ZM90.72,367.64H83.26V345.18h7.47v22.46ZM87,342.11h0a3.89,3.89,0,1,1,4.27-3.88,3.86,3.86,0,0,1-4.27,3.88Zm30.65,25.53h-7.46v-12c0-3-1.08-5.08-3.78-5.08a4.09,4.09,0,0,0-3.83,2.73,5.11,5.11,0,0,0-.25,1.82v12.54H94.85s0.1-20.35,0-22.46h7.47v3.18a7.41,7.41,0,0,1,6.73-3.71c4.91,0,8.59,3.21,8.59,10.11v12.88Z" transform="translate(-75.74 -326)"/></svg>