<svg id="Layer_1" data-name="Layer 1" xmlns="http://www.w3.org/2000/svg" viewBox="0 0 49.3 21.41"><defs><style>.cls-1{fill:#f7a6b2;}</style></defs><title>soundcloud-icon</title><path class="cls-1" d="M377.91,555.92a0.21,0.21,0,0,0,.21-0.2l0.55-4.33L378.12,547a0.21,0.21,0,0,0-.41,0l-0.48,4.43,0.48,4.33A0.21,0.21,0,0,0,377.91,555.92Zm-1.63-1.84h0Zm-0.2.19a0.21,0.21,0,0,0,.2-0.19l0.43-2.69-0.43-2.74a0.2,0.2,0,0,0-.39,0l-0.36,2.74,0.36,2.69A0.2,0.2,0,0,0,376.09,554.28Zm4-8.14a0.26,0.26,0,0,0-.25-0.24,0.25,0.25,0,0,0-.25.24l-0.46,5.25,0.46,5.06a0.25,0.25,0,0,0,.25.24,0.26,0.26,0,0,0,.25-0.24l0.52-5.06Zm1.71,10.76a0.3,0.3,0,0,0,.29-0.28h0l0.49-5.22-0.49-5.4a0.29,0.29,0,0,0-.58,0l-0.44,5.4,0.44,5.22A0.29,0.29,0,0,0,381.8,556.9Zm2,0.09a0.34,0.34,0,0,0,.33-0.33h0l0.47-5.26-0.47-5a0.33,0.33,0,0,0-.66,0l-0.41,5,0.41,5.26A0.33,0.33,0,0,0,383.77,557Zm2.79-5.59-0.44-8.15a0.37,0.37,0,0,0-.75,0L385,551.4l0.38,5.26a0.37,0.37,0,0,0,.75,0h0Zm1.19,5.64a0.42,0.42,0,0,0,.42-0.41h0l0.41-5.23-0.41-10a0.42,0.42,0,0,0-.83,0l-0.36,10,0.36,5.23A0.42,0.42,0,0,0,387.76,557Zm2-16.94a0.46,0.46,0,0,0-.46.45L389,551.4l0.34,5.18a0.46,0.46,0,0,0,.91,0h0l0.38-5.18-0.38-10.84A0.46,0.46,0,0,0,389.77,540.1Zm2,16.94a0.5,0.5,0,0,0,.5-0.5h0l0.35-5.15-0.35-11.21a0.5,0.5,0,0,0-1,0L391,551.4l0.31,5.15A0.5,0.5,0,0,0,391.8,557Zm2,0a0.55,0.55,0,0,0,.54-0.54h0l0.32-5.1-0.32-10.92a0.54,0.54,0,0,0-1.08,0L393,551.4l0.29,5.1A0.54,0.54,0,0,0,393.85,557Zm2.94-5.63-0.29-10.53a0.58,0.58,0,0,0-1.17,0l-0.26,10.52,0.26,5.07a0.58,0.58,0,0,0,1.17,0h0Zm1.2,5.65a0.63,0.63,0,0,0,.63-0.62h0l0.26-5-0.26-12.52a0.63,0.63,0,0,0-1.25,0l-0.24,12.52,0.24,5A0.63,0.63,0,0,0,398,557.05Zm2.07-20a0.67,0.67,0,0,0-.67.67l-0.27,13.66,0.27,5a0.67,0.67,0,0,0,1.33,0h0l0.3-5-0.3-13.66A0.67,0.67,0,0,0,400.07,537.08Zm1.89,20h16.81a6.06,6.06,0,1,0-2.34-11.66,10.7,10.7,0,0,0-10.65-9.75,10.82,10.82,0,0,0-3.88.73,0.69,0.69,0,0,0-.58.71v19.24A0.74,0.74,0,0,0,402,557.06Z" transform="translate(-375.53 -535.66)"/></svg>