<svg id="Layer_1" data-name="Layer 1" xmlns="http://www.w3.org/2000/svg" viewBox="0 0 49.26 40.04"><defs><style>.cls-1{fill:#f7a6b2;}</style></defs><title>twitter-icon</title><path class="cls-1" d="M325.48,236.82a20.14,20.14,0,0,1-5.81,1.59,10.13,10.13,0,0,0,4.44-5.59,20.23,20.23,0,0,1-6.42,2.45,10.12,10.12,0,0,0-17.22,9.22,28.69,28.69,0,0,1-20.83-10.56,10.12,10.12,0,0,0,3.13,13.49,10.07,10.07,0,0,1-4.58-1.26s0,0.08,0,.13a10.11,10.11,0,0,0,8.11,9.91,10.13,10.13,0,0,1-4.56.17,10.12,10.12,0,0,0,9.44,7,20.28,20.28,0,0,1-12.55,4.33,20.7,20.7,0,0,1-2.41-.14,28.61,28.61,0,0,0,15.49,4.54c18.59,0,28.76-15.4,28.76-28.76,0-.44,0-0.87,0-1.31A20.52,20.52,0,0,0,325.48,236.82Z" transform="translate(-276.22 -232.08)"/></svg>