<svg id="Layer_1" data-name="Layer 1" xmlns="http://www.w3.org/2000/svg" viewBox="0 0 49.05 47.97"><defs><style>.cls-1{fill:#f7a6b2;}</style></defs><title>youtube-icon</title><path class="cls-1" d="M816,349.7H784.83a9,9,0,0,0-9,9v7.2a9,9,0,0,0,9,9H816a9,9,0,0,0,9-9v-7.2A9,9,0,0,0,816,349.7Zm-24.59,5.61h-2.89v14.38h-2.8V355.31h-2.89v-2.45h8.58v2.45Zm8.18,14.38h-2.48v-1.36a5.31,5.31,0,0,1-1.43,1.15,3,3,0,0,1-1.44.4,1.54,1.54,0,0,1-1.3-.56,2.67,2.67,0,0,1-.44-1.66V357.27h2.48v9.52a1.05,1.05,0,0,0,.15.64,0.61,0.61,0,0,0,.51.2,1.42,1.42,0,0,0,.69-0.26,3.37,3.37,0,0,0,.77-0.67v-9.43h2.48v12.41Zm9-2.56a3.09,3.09,0,0,1-.58,2,2.06,2.06,0,0,1-1.69.7,3,3,0,0,1-1.3-.27,3.18,3.18,0,0,1-1.06-.84v1h-2.51V352.86h2.51v5.42a3.88,3.88,0,0,1,1.06-.86,2.43,2.43,0,0,1,1.15-.3,2.14,2.14,0,0,1,1.8.79,3.7,3.7,0,0,1,.62,2.32v6.89Zm8.6-3.35h-4.75v2.34a2.7,2.7,0,0,0,.24,1.36,0.92,0.92,0,0,0,.84.38,1,1,0,0,0,.86-0.32,2.67,2.67,0,0,0,.25-1.42v-0.56h2.55v0.64a4,4,0,0,1-.94,2.88,3.7,3.7,0,0,1-2.78,1,3.42,3.42,0,0,1-2.63-1,4,4,0,0,1-1-2.81v-5.58A3.5,3.5,0,0,1,810.9,358a3.74,3.74,0,0,1,2.72-1,3.49,3.49,0,0,1,2.62.94,3.73,3.73,0,0,1,.91,2.71v3.17Z" transform="translate(-775.87 -326.85)"/><path class="cls-1" d="M813.51,359.14a1,1,0,0,0-.85.34,1.82,1.82,0,0,0-.26,1.11v1.25h2.19v-1.25a1.83,1.83,0,0,0-.26-1.11A1,1,0,0,0,813.51,359.14Z" transform="translate(-775.87 -326.85)"/><path class="cls-1" d="M805,359.1a1.22,1.22,0,0,0-.53.12,1.82,1.82,0,0,0-.51.38v7.73a2.15,2.15,0,0,0,.59.44,1.46,1.46,0,0,0,.6.13,0.81,0.81,0,0,0,.67-0.27,1.36,1.36,0,0,0,.21-0.85v-6.41a1.49,1.49,0,0,0-.26-1A1,1,0,0,0,805,359.1Z" transform="translate(-775.87 -326.85)"/><polygon class="cls-1" points="13.04 18.54 16.18 18.54 16.18 10.85 19.84 0 16.64 0 14.7 7.41 14.5 7.41 12.46 0 9.29 0 13.04 11.19 13.04 18.54"/><path class="cls-1" d="M800,345.73a4.26,4.26,0,0,0,3-1A3.57,3.57,0,0,0,804,342v-7.06a3.29,3.29,0,0,0-1.1-2.56,4.12,4.12,0,0,0-2.84-1,4.59,4.59,0,0,0-3,.94,3.12,3.12,0,0,0-1.13,2.53v7.09a3.63,3.63,0,0,0,1.1,2.77A4.12,4.12,0,0,0,800,345.73Zm-1.16-11a0.93,0.93,0,0,1,.32-0.73,1.24,1.24,0,0,1,.83-0.27,1.38,1.38,0,0,1,.9.27,0.9,0.9,0,0,1,.34.73v7.45a1.13,1.13,0,0,1-.34.86,1.26,1.26,0,0,1-.9.31,1.12,1.12,0,0,1-.85-0.31,1.2,1.2,0,0,1-.3-0.87v-7.45Z" transform="translate(-775.87 -326.85)"/><path class="cls-1" d="M808.26,345.59a3.52,3.52,0,0,0,1.62-.44,5.91,5.91,0,0,0,1.61-1.28v1.51h2.79V331.71h-2.79V342.1a3.82,3.82,0,0,1-.86.73,1.62,1.62,0,0,1-.78.29,0.67,0.67,0,0,1-.57-0.22,1.11,1.11,0,0,1-.18-0.7V331.71h-2.79v11.43a2.88,2.88,0,0,0,.49,1.83A1.76,1.76,0,0,0,808.26,345.59Z" transform="translate(-775.87 -326.85)"/></svg>